<svg width="73" height="46" viewBox="0 0 73 46" fill="none" xmlns="http://www.w3.org/2000/svg">
<path d="M29.384 22.832C32.0293 23.4293 34.12 24.752 35.656 26.8C37.2347 28.8053 38.024 31.1093 38.024 33.712C38.024 37.552 36.7013 40.56 34.056 42.736C31.4107 44.912 27.6987 46 22.92 46H0.584V0.879997H22.216C26.824 0.879997 30.4293 1.904 33.032 3.952C35.6773 6 37 8.88 37 12.592C37 15.2373 36.296 17.456 34.888 19.248C33.5227 20.9973 31.688 22.192 29.384 22.832ZM13.128 18.8H19.464C22.6213 18.8 24.2 17.4987 24.2 14.896C24.2 12.208 22.6213 10.864 19.464 10.864H13.128V18.8ZM20.424 35.888C23.5813 35.888 25.16 34.5653 25.16 31.92C25.16 30.5547 24.7333 29.5093 23.88 28.784C23.0693 28.0587 21.896 27.696 20.36 27.696H13.128V35.888H20.424ZM56.0655 10.928V18.288H70.4655V27.824H56.0655V35.952H72.3855V46H43.5215V0.879997H72.3855V10.928H56.0655Z" fill="#071C1D"/>
</svg>
